<svg xmlns="http://www.w3.org/2000/svg" viewBox="0 0 143.061 131.365">
  <path d="M33.087 130.865V20.853H142.56v110.012zm.9-.9h107.674V21.753H33.986zm-31.717.9V21.019c-.475.058-.919-.019-1.082-.4-.342-.776.888-1.191 1.409-1.6.482-.374 1.72-1.519 1.724-2.611 0-.922-.744-1.543-1.1-3.339-.277-1.411 0-2.181-.2-3.272-.225-1.25-1.438-1.614-1.544-2.954-.065-.875 1.578-3.311 3.079-3.311 1.532 0 2.372 1.474 3.417 2.754 1.128 1.364 1.91 1.884 2.5 1.533.475-.281.469-1.054.232-1.641-.292-.725-.9-1.293-.549-2.244a3.2 3.2 0 012.652-1.638 42.329 42.329 0 004.677-.431C19.702 1.24 20.271-.021 21.308.64c.568.365.658 1.073.37 1.992a4.969 4.969 0 01-1.41 2.356 9.887 9.887 0 01-2.314 1.292c-1.109.5-1.964.923-1.769 2.152.066.428.721.731 1.328.664.833-.1 1.807-.383 2.694-.428a11.1 11.1 0 014.389 1.1 12.282 12.282 0 013.221 2.695c.5.517 2.072 2.458 2.261 2.646.667.667 1.34 1.267 1.742 1.6.2.163.156.211.156.211a.308.308 0 01-.143-.038 8.075 8.075 0 01-1.144-.676c-.652-.431-3.507-2.87-3.857-3.151-.539-.427-1.736-1.4-2.416-.788-.322.291-.242.949-.147 1.242.1.316.549.968.807 1.542a17.448 17.448 0 01.428 2.534c.158.584.842 1.9.3 2.66a1.868 1.868 0 01-.9.607h.169v110.012zm.9-.9h21.013V21.753H3.167zM16.45 14.689c-1.782.434-3.847.989-5.037 1.3a35.963 35.963 0 00-3.8.949 16.132 16.132 0 00-2.652 2.368 13.746 13.746 0 01-1.386 1.26 2.988 2.988 0 01-.616.287h19.945a.658.658 0 01-.282-.3c-.453-1.076.866-1.306.425-2.264-.15-.326-.658-.262-.907-.173a4.5 4.5 0 00-1.174.8c-.192.159-1.1.868-1.912 1.484-.686.53-1.647.575-1.969.138-.754-1.015 1.236-1.632 1.685-1.983 1.219-.939 2.213-2.247 1.255-3.5a1.848 1.848 0 00-1.589-.688 8.8 8.8 0 00-1.986.322zm51.946 105.906v-7.116a3.144 3.144 0 011.62-.389c1.367 0 2.182.894 2.182 2.716 0 1.7-.785 2.755-1.905 2.755a1.5 1.5 0 01-.62-.108v2.142zm1.266-6.533v3.544a1.36 1.36 0 00.314.049c.758 0 .945-.965.945-1.823 0-.936-.2-1.841-.895-1.841a.9.9 0 00-.364.071zm44.012 1.769c0-1.574.638-2.743 1.936-2.743s1.934 1.169 1.934 2.743-.628 2.75-1.934 2.75-1.936-1.175-1.936-2.749zm1.276-.031c0 .965.109 1.751.66 1.751.57 0 .669-.787.669-1.741s-.1-1.78-.669-1.78-.66.807-.66 1.776zm-31.471.031c0-1.574.638-2.743 1.935-2.743s1.935 1.169 1.935 2.743-.628 2.75-1.935 2.75-1.935-1.175-1.935-2.749zm1.276-.031c0 .965.108 1.751.659 1.751.571 0 .67-.787.67-1.741s-.1-1.78-.67-1.78-.659.807-.659 1.776zm38.283 1.12c0-1.357 1-1.78 2.417-1.967v-.175a.674.674 0 00-.758-.737 2.457 2.457 0 00-1.12.275l-.265-.837a3.32 3.32 0 011.632-.392c.991 0 1.737.491 1.737 1.945v3.154a3.113 3.113 0 01-1.737.393c-1.268.001-1.906-.606-1.906-1.657zm1.2-.05c0 .541.266.845.768.845a1.334 1.334 0 00.453-.087v-1.907c-.82.109-1.224.385-1.224 1.15zm-21.135.05c0-1.357 1-1.78 2.417-1.967v-.175a.672.672 0 00-.756-.737 2.457 2.457 0 00-1.12.275l-.266-.837a3.322 3.322 0 011.631-.392c.994 0 1.74.491 1.74 1.945v3.154a3.125 3.125 0 01-1.74.393c-1.269.001-1.908-.606-1.908-1.657zm1.2-.05c0 .541.265.845.768.845a1.314 1.314 0 00.451-.087v-1.907c-.82.109-1.223.385-1.223 1.15zm-31.392.05c0-1.357 1-1.78 2.416-1.967v-.175a.673.673 0 00-.757-.737 2.451 2.451 0 00-1.12.275l-.266-.837a3.319 3.319 0 011.631-.392c.992 0 1.738.491 1.738 1.945v3.154a3.114 3.114 0 01-1.738.393c-1.271.001-1.908-.606-1.908-1.657zm1.2-.05c0 .541.266.845.768.845a1.329 1.329 0 00.452-.087v-1.907c-.824.109-1.227.385-1.227 1.15zm-11.741-1.052c0-1.8.824-2.731 1.825-2.731a1.414 1.414 0 011.1.392l-.256.8a.75.75 0 00-.54-.2c-.571 0-.845.679-.845 1.719 0 1.072.314 1.721.824 1.721a.734.734 0 00.561-.2l.265.864a1.382 1.382 0 01-1.111.393c-1.084.004-1.83-.947-1.83-2.757zm-4.658 0c0-1.591.727-2.731 1.984-2.731 1.337 0 1.985 1.139 1.888 3.006l-2.6.325c.078.767.412 1.15 1.041 1.15a2.089 2.089 0 001.103-.274l.285.893a2.709 2.709 0 01-1.563.393c-1.399 0-2.145-1.03-2.145-2.761zm1.188-.226l1.436-.176c0-.895-.2-1.406-.668-1.406s-.785.651-.775 1.583zm-11.671 1.328c0-1.357 1-1.78 2.417-1.967v-.175a.674.674 0 00-.758-.737 2.461 2.461 0 00-1.12.275l-.265-.837a3.328 3.328 0 011.625-.391c.994 0 1.74.491 1.74 1.945v3.154a3.123 3.123 0 01-1.74.393c-1.267 0-1.906-.607-1.906-1.658zm1.2-.05c0 .541.265.845.766.845a1.335 1.335 0 00.454-.087v-1.907c-.826.109-1.23.385-1.23 1.15zm6.732.158v-2.89h-.473v-.952h.473v-1.15l1.275-.4v1.553h.692v.952h-.7v2.752c0 .49.167.658.434.658a.849.849 0 00.265-.049v.913a1.336 1.336 0 01-.639.138c-.866-.001-1.337-.591-1.337-1.523zm74.991 1.453v-5.3h1.276v5.3zm-2.387 0v-7.713h1.285v7.713zm-6.849 0v-3.744c0-.462-.187-.716-.64-.716a1.056 1.056 0 00-.531.1v4.362h-1.266v-5a3.768 3.768 0 011.827-.392c1.3 0 1.9.53 1.9 1.65v3.744zm-9.453 0v-5.3h1.265v5.3zm-3.96 0l1.542-4.342h-1.425v-.952h3.008l-1.474 4.333h1.483v.962zm-6.329 0l-1.907-3.91a6.23 6.23 0 01-.265-.619h-.021s.021.3.021.609v3.919h-1.137v-6.76h1.187l1.71 3.469c.158.315.3.658.3.658h.021s-.021-.353-.021-.668v-3.46h1.129v6.76zm-8.1 0v-5.3h1.275v5.3zm-2.359 0v-3.744c0-.462-.186-.716-.639-.716a1.056 1.056 0 00-.531.1v4.362h-1.271v-5a3.768 3.768 0 011.827-.392c1.3 0 1.9.53 1.9 1.65v3.744zm-9.453 0v-5.3h1.276v5.3zm-3.96 0l1.543-4.342h-1.428v-.952h3.011l-1.473 4.333h1.484v.962zm-11.26 0v-5.3h1.275v5.3zm-14.12 0v-5a4.158 4.158 0 012.377-.382l-.236 1.041a1 1 0 00-.874-.02v4.362zm-9.029 0v-6.466a3.577 3.577 0 011.729-.392 1.957 1.957 0 012.21 2.162c0 1.269-.716 2.239-2.456 2.122l-.149-.01v2.584zm1.335-5.875v2.359l.149.01c.895.058 1.121-.541 1.121-1.2s-.188-1.228-.9-1.228a1.034 1.034 0 00-.37.059zm-29.1 5.766v-1.344h5.719v-1.445h1.04v2.789zm3.1-5.906h-.184a.7.7 0 00-.764.785 2.57 2.57 0 00.285 1.16l-.864.275a3.436 3.436 0 01-.408-1.691c0-1.029.508-1.8 2.015-1.8h3.27a3.236 3.236 0 01.408 1.8c0 1.314-.631 1.975-1.721 1.975-1.405 0-1.844-1.036-2.037-2.503zm1.986 1.264c.56 0 .876-.274.876-.795a1.36 1.36 0 00-.092-.469h-1.976c.112.847.397 1.264 1.192 1.264zm109.878-2.1a.681.681 0 01.678-.687.688.688 0 11-.678.687zm-18.688 0a.682.682 0 01.677-.687.688.688 0 11-.677.687zm-18.385 0a.682.682 0 01.679-.687.688.688 0 11-.679.687zm-11.81 0a.68.68 0 01.677-.687.688.688 0 11-.677.687zm-15.22 0a.681.681 0 01.677-.687.688.688 0 11-.677.687zm-50.807-4.164a3.4 3.4 0 01-.406-1.792c0-1.445.743-2.27 1.862-2.27a1.54 1.54 0 011.538 1.078h.021a1.753 1.753 0 011.752-1.261c1.5 0 2.036 1.139 2.036 2.391a3.468 3.468 0 01-.408 1.853zm3.473-1.546v.2h2.273a1.332 1.332 0 00.082-.489c.01-.684-.4-1.02-1.142-1.02-.84.004-1.212.351-1.212 1.309zm-2.923-.3a1.493 1.493 0 00.071.5h2.059v-.2c0-.806-.275-1.173-1.111-1.173-.703 0-1.023.305-1.023.877zm-1.658-4.288a.716.716 0 01.712-.722.723.723 0 01.712.722.712.712 0 01-.712.7.7.7 0 01-.711-.696zm2.32.652v-1.323h5.488v1.323zm87.922-3.842c0-1.726 1.274-2.264 3.075-2.5v-.227a.858.858 0 00-.963-.938 3.137 3.137 0 00-1.425.351l-.338-1.063a4.223 4.223 0 012.076-.5c1.263 0 2.213.624 2.213 2.475v4.015a3.989 3.989 0 01-2.213.5c-1.613.002-2.424-.772-2.424-2.109zm1.525-.063c0 .688.337 1.076.977 1.076a1.682 1.682 0 00.574-.112v-2.424c-1.039.137-1.551.487-1.551 1.464zm-10.813-.158v-4.527h1.624v4.712c0 .537.262.875.788.875a1.327 1.327 0 00.652-.162v-5.425h1.636v6.34a4.42 4.42 0 01-2.338.524 2.053 2.053 0 01-2.362-2.337zm-13.58-1.176c0-2.027.923-3.476 2.524-3.476 1.7 0 2.527 1.449 2.4 3.826l-3.314.411c.1.976.526 1.464 1.327 1.464a2.681 2.681 0 001.413-.35l.363 1.137a3.465 3.465 0 01-1.989.5c-1.777 0-2.724-1.31-2.724-3.512zm1.51-.288l1.826-.225c0-1.139-.249-1.789-.85-1.789s-.988.825-.976 2.014zm-18.843.288c0-2.29 1.049-3.476 2.324-3.476a1.793 1.793 0 011.4.5l-.326 1.013a.947.947 0 00-.687-.251c-.726 0-1.076.863-1.076 2.19 0 1.364.4 2.189 1.051 2.189a.937.937 0 00.712-.249l.338 1.1a1.762 1.762 0 01-1.413.5c-1.375-.004-2.324-1.214-2.324-3.516zm-21.948.061c0-2.164 1-3.488 2.425-3.488a2.081 2.081 0 01.789.125v-3.125h1.624v9.441a3.8 3.8 0 01-2.125.5c-1.726-.002-2.713-1.212-2.713-3.453zm1.612-.087c0 1.439.325 2.314 1.151 2.314a.907.907 0 00.451-.075v-4.49a1.826 1.826 0 00-.4-.05c-.939-.001-1.202 1.039-1.202 2.301zm47.722 1.564v-3.677h-.6v-1.21h.6V91.93l1.627-.513v1.976h.887v1.213h-.887v3.5c0 .625.212.838.55.838a1.1 1.1 0 00.337-.063v1.165a1.69 1.69 0 01-.812.175c-1.103-.001-1.702-.75-1.702-1.938zm-3.726 0v-3.677h-.6v-1.21h.6V91.93l1.623-.513v1.976h.889v1.213h-.889v3.5c0 .625.214.838.551.838a1.1 1.1 0 00.338-.063v1.165a1.705 1.705 0 01-.814.175c-1.099-.001-1.698-.75-1.698-1.938zm-9.578 0v-3.677h-.6v-1.21h.6V91.93l1.624-.513v1.976h.887v1.213h-.887v3.5c0 .625.213.838.55.838a1.1 1.1 0 00.338-.063v1.165a1.7 1.7 0 01-.814.175c-1.099-.001-1.698-.75-1.698-1.938zm22.871 1.849v-6.365a5.284 5.284 0 013.025-.486l-.3 1.323a1.3 1.3 0 00-1.114-.025v5.553zm-26.2 0v-6.741h1.625v6.741zm-3 0v-4.739c0-.6-.3-.938-.788-.938a1.363 1.363 0 00-.7.175v5.5h-1.614v-9.812h1.612v3.275a2.324 2.324 0 011.191-.311 1.858 1.858 0 011.937 2.111v4.739zm-11.117 0v-6.365a5.282 5.282 0 013.025-.486l-.3 1.323a1.292 1.292 0 00-1.112-.025v5.553zm-2.477 0l-.446-1.826H55.71l-.451 1.825h-1.487l2.376-8.6h1.538l2.34 8.6zm-1.715-5.438l-.587 2.463h1.613l-.563-2.463c-.112-.513-.213-1.112-.213-1.112h-.024s-.099.574-.225 1.112zm-8.19 5.438v-6.741h1.625v6.741zm-32.075-2.808c0-1.383 1.18-2.057 3.115-1.955l.338 2.7c.794-.082 1.191-.427 1.191-1.079a2.178 2.178 0 00-.284-1.151l.925-.3a2.816 2.816 0 01.408 1.62c0 1.445-1.068 2.219-2.861 2.219-1.652.003-2.832-.75-2.832-2.054zm.956.032c0 .489.672.8 1.64.794l-.184-1.486c-.926 0-1.456.202-1.456.692zm-.548-3.45a3.845 3.845 0 01-.408-1.892c0-1.346.549-1.966 1.709-1.966h3.88v1.328h-3.88c-.478 0-.743.194-.743.663a1.089 1.089 0 00.1.55h4.521v1.317zm58.1-2.485a.867.867 0 01.862-.874.874.874 0 11-.862.874zm-26.5 0a.867.867 0 01.863-.874.874.874 0 11-.863.874zm-31.6-2.977a3.858 3.858 0 01-.408-1.894c0-1.344.549-1.965 1.709-1.965h3.88v1.333h-3.88c-.478 0-.743.194-.743.663a1.091 1.091 0 00.1.55h4.521v1.312zm67.7-4.816c0-2 .812-3.49 2.463-3.49s2.463 1.487 2.463 3.49-.8 3.5-2.463 3.5-2.467-1.498-2.467-3.5zm1.625-.039c0 1.228.138 2.229.839 2.229.726 0 .851-1 .851-2.216s-.124-2.266-.851-2.266-.844 1.027-.844 2.253zm19.136.024c0-2.027.925-3.476 2.524-3.476 1.7 0 2.526 1.449 2.4 3.826l-3.314.413c.1.976.525 1.463 1.325 1.463a2.659 2.659 0 001.414-.35l.363 1.138a3.456 3.456 0 01-1.988.5c-1.779-.001-2.729-1.313-2.729-3.513zm1.512-.288l1.826-.225c0-1.138-.25-1.789-.851-1.789s-.992.826-.98 2.014zm-10.358 1.69c0-1.727 1.273-2.265 3.075-2.5v-.226a.858.858 0 00-.964-.939 3.149 3.149 0 00-1.425.35l-.338-1.062a4.223 4.223 0 012.076-.5c1.263 0 2.213.624 2.213 2.475v4.014a3.986 3.986 0 01-2.213.5c-1.613-.001-2.424-.775-2.424-2.112zm1.524-.063c0 .688.337 1.076.977 1.076a1.685 1.685 0 00.575-.113v-2.427c-1.04.137-1.552.487-1.552 1.464zm-26.9.063c0-1.727 1.274-2.265 3.076-2.5v-.226a.858.858 0 00-.964-.939 3.16 3.16 0 00-1.426.35l-.337-1.062a4.22 4.22 0 012.076-.5c1.263 0 2.212.624 2.212 2.475v4.014a3.987 3.987 0 01-2.212.5c-1.612-.001-2.423-.775-2.423-2.112zm1.523-.063c0 .688.338 1.076.977 1.076a1.686 1.686 0 00.576-.113v-2.427c-1.037.137-1.551.487-1.551 1.464zm-17.23-1.338c0-2.027.924-3.476 2.525-3.476 1.7 0 2.526 1.449 2.4 3.826l-3.314.413c.1.976.525 1.463 1.325 1.463a2.653 2.653 0 001.413-.35l.364 1.138a3.458 3.458 0 01-1.988.5c-1.775-.002-2.724-1.314-2.724-3.514zm1.512-.288l1.825-.225c0-1.138-.25-1.789-.851-1.789s-.985.825-.973 2.013zm-4.763 1.826v-3.679h-.6v-1.21h.6v-1.464l1.625-.513v1.976h.887v1.211h-.887v3.5c0 .626.212.838.551.838a1.1 1.1 0 00.337-.061v1.162a1.713 1.713 0 01-.814.174c-1.098.002-1.698-.746-1.698-1.934zm50.335 1.85v-9.816h1.636v9.82zm-8.717 0v-4.765c0-.588-.238-.913-.814-.913a1.36 1.36 0 00-.676.125v5.557h-1.61v-6.37a4.777 4.777 0 012.326-.5c1.65 0 2.412.674 2.412 2.1v4.77zm-12.03 0V80.26h1.624v6.746zm-5.042 0l1.965-5.528h-1.812v-1.211h3.839l-1.876 5.514h1.888v1.229zm-8.3 0v-4.765c0-.588-.237-.913-.814-.913a1.365 1.365 0 00-.676.125v5.557h-1.611v-6.37a4.771 4.771 0 012.326-.5c1.65 0 2.413.674 2.413 2.1v4.77zm-6.89 0v-6.366a5.275 5.275 0 013.026-.487l-.3 1.324a1.3 1.3 0 00-1.112-.025v5.558zm-12.655 0v-4.765c0-.588-.238-.913-.814-.913a1.36 1.36 0 00-.676.125v5.557h-1.613v-6.37a4.773 4.773 0 012.326-.5c1.651 0 2.413.674 2.413 2.1v4.77zm-6.241 0v-8.6h1.712v8.6zm-24.215-6.104h-.184a.7.7 0 00-.764.786 2.566 2.566 0 00.285 1.159l-.864.275a3.426 3.426 0 01-.408-1.69c0-1.029.508-1.8 2.015-1.8h3.27a3.24 3.24 0 01.408 1.8c0 1.314-.631 1.975-1.721 1.975-1.405.003-1.844-1.038-2.037-2.505zm1.986 1.265c.56 0 .876-.276.876-.795a1.366 1.366 0 00-.092-.47h-1.976c.112.846.397 1.265 1.192 1.265zm61.3-3.877a.867.867 0 01.862-.875.875.875 0 11-.862.875zm-67.343-.26V76.74h7.712v1.286zm2.123-4.6c0-1.385 1.18-2.057 3.115-1.956l.338 2.7c.794-.082 1.191-.427 1.191-1.08a2.172 2.172 0 00-.284-1.15l.925-.3a2.805 2.805 0 01.408 1.618c0 1.446-1.068 2.219-2.861 2.219-1.652.01-2.832-.744-2.832-2.046zm.956.031c0 .489.672.8 1.64.794l-.184-1.487c-.926.005-1.456.209-1.456.698zm56.844.036l.4-1.186a1.607 1.607 0 001.024.376.628.628 0 00.7-.626c0-.489-.212-.688-.814-1.139a2.447 2.447 0 01-1.2-1.953 1.837 1.837 0 011.89-1.959 2.553 2.553 0 011.651.5l-.388 1.037a1.33 1.33 0 00-.887-.325.629.629 0 00-.651.638c0 .439.313.7.914 1.14a2.325 2.325 0 011.2 2 2.022 2.022 0 01-2.163 2 2.424 2.424 0 01-1.676-.498zm-5.764-3c0-2 .812-3.491 2.463-3.491s2.462 1.487 2.462 3.491-.8 3.5-2.462 3.5-2.465-1.494-2.465-3.496zm1.624-.039c0 1.228.138 2.229.84 2.229.725 0 .85-1 .85-2.216s-.126-2.261-.851-2.261-.84 1.026-.84 2.252zm16.132 1.425c0-1.726 1.274-2.264 3.076-2.5v-.223a.858.858 0 00-.964-.939 3.138 3.138 0 00-1.426.35l-.337-1.061a4.22 4.22 0 012.075-.5c1.263 0 2.213.625 2.213 2.475v4.015a3.986 3.986 0 01-2.213.5c-1.614-.001-2.425-.776-2.425-2.113zm1.524-.062c0 .688.338 1.076.976 1.076a1.687 1.687 0 00.577-.112v-2.424c-1.041.137-1.554.487-1.554 1.464zm-33.95 1.129a1.031 1.031 0 111.037 1.024 1.032 1.032 0 01-1.037-1.024zm25.648-.925v-3.679h-.6v-1.211h.6v-1.463l1.625-.513v1.976h.887v1.211h-.887v3.5c0 .626.212.839.551.839a1.065 1.065 0 00.337-.063v1.162a1.693 1.693 0 01-.812.175c-1.099.002-1.701-.749-1.701-1.934zm3.528 1.85v-6.365a5.273 5.273 0 013.025-.487l-.3 1.324a1.285 1.285 0 00-1.112-.024v5.552zm-17.046 0l-.338-4.889c-.025-.45-.025-.963-.025-.963h-.024s-.113.513-.227.963l-1.263 4.889H63.1l-1.272-4.89a17.436 17.436 0 01-.212-.963h-.025s0 .526-.026.951l-.324 4.9h-1.5l.75-8.6h1.588l1.251 4.79c.125.463.212.95.212.95h.024s.088-.475.213-.938l1.29-4.8h1.574l.762 8.6zm-17.558 0l2.613-7.1h-2.889v-1.5h4.9l-.923 2.635a41.239 41.239 0 00-1.726 5.965zm-4.014 0v-6.64a5.452 5.452 0 01-1.714.326l-.163-.988a3.016 3.016 0 002.326-1.3h1.186v8.6zm-27.884-8.109a1.7 1.7 0 01.1-.642H13.89v-1.323h7.688a3.092 3.092 0 01.408 1.732c0 1.4-.987 2.209-2.811 2.209-1.762 0-2.841-.814-2.841-1.976zm.895-.316c0 .766.846.979 1.875.979 1.172 0 1.885-.265 1.885-.938a.736.736 0 00-.061-.367H17.27a1.547 1.547 0 00-.042.326zm-3.154-3.717a.716.716 0 01.712-.722.723.723 0 01.712.722.713.713 0 01-.712.7.705.705 0 01-.712-.7zm2.32.653v-1.323h5.488v1.323zm-1.517-6.528l4.226-.785c.408-.07.876-.122.876-.122v-.02s-.468-.051-.876-.133l-4.226-.814v-1.293l7 1.681v1.231l-7 1.68zm1.416-5.648c0-1.385 1.18-2.057 3.115-1.955l.338 2.7c.794-.082 1.191-.427 1.191-1.079a2.167 2.167 0 00-.284-1.15l.925-.3a2.806 2.806 0 01.408 1.619c0 1.445-1.068 2.219-2.861 2.219-1.652-.001-2.832-.754-2.832-2.054zm.956.031c0 .49.672.8 1.64.794l-.184-1.487c-.926-.003-1.456.202-1.456.69zm-.548-3.454a3.852 3.852 0 01-.408-1.893c0-1.344.549-1.965 1.709-1.965h3.88v1.331h-3.88c-.478 0-.743.193-.743.662a1.093 1.093 0 00.1.551h4.521v1.311zm-.408-7.37c0-1.385 1.18-2.057 3.115-1.956l.338 2.7c.794-.081 1.191-.427 1.191-1.079a2.178 2.178 0 00-.284-1.151l.925-.294a2.805 2.805 0 01.408 1.618c0 1.446-1.068 2.219-2.861 2.219-1.652-.004-2.832-.758-2.832-2.064zm.956.03c0 .489.672.8 1.64.795l-.184-1.487c-.926-.003-1.456.201-1.456.689zm.132-4.43v1.477h-.986v-3.131l4.49 1.528v-1.538h1v3.257zm-3.307-3.667a.715.715 0 01.712-.722.723.723 0 01.712.722.712.712 0 01-.712.7.7.7 0 01-.712-.703zm2.32.652v-1.325h5.488v1.322zm1.833-5.04h-.184a.7.7 0 00-.764.784 2.571 2.571 0 00.285 1.161l-.864.274a3.428 3.428 0 01-.408-1.689c0-1.03.508-1.8 2.015-1.8h3.27a3.241 3.241 0 01.408 1.8c0 1.312-.631 1.975-1.721 1.975-1.405-.003-1.844-1.041-2.037-2.508zm1.986 1.264c.56 0 .876-.276.876-.795a1.36 1.36 0 00-.092-.469h-1.976c.112.843.397 1.261 1.192 1.261zm13.141-10.216a2.091 2.091 0 01-1.12-.928 2.883 2.883 0 011.193.07c.606.169 1.132.405 1.041.777-.039.163-.219.219-.431.219a2.023 2.023 0 01-.683-.138z" fill="#fff" stroke="rgba(0,0,0,0)" stroke-miterlimit="10"/>
</svg>
