<svg xmlns="http://www.w3.org/2000/svg" width="257.286" height="45.325" viewBox="0 0 257.286 45.325">
  <g id="Group_10" data-name="Group 10" transform="translate(-1505.64 -2804.344)">
    <g id="Group_9" data-name="Group 9">
      <path id="Path_42" data-name="Path 42" d="M1675.688,2823.045a4.787,4.787,0,0,1-3.663,1.428,4.985,4.985,0,1,1,0-9.966,5.071,5.071,0,0,1,3.562,1.274l-.6,1.091a4.043,4.043,0,0,0-2.907-1.175,3.765,3.765,0,0,0,0,7.53,4.046,4.046,0,0,0,2.995-1.175Z" fill="#fff"/>
      <path id="Path_43" data-name="Path 43" d="M1680.033,2824.459a3.469,3.469,0,1,1,3.646-3.457,3.44,3.44,0,0,1-3.646,3.457m0-5.837a2.348,2.348,0,1,0,2.238,2.338,2.2,2.2,0,0,0-2.238-2.338" fill="#fff"/>
      <path id="Path_44" data-name="Path 44" d="M1691.136,2824.3h-1.4v-3.71c0-1.119-.2-1.959-1.437-1.959-1.294,0-1.774,1.051-1.774,2.323v3.346h-1.4v-6.649h1.4l-.015,1.05h.043a2.349,2.349,0,0,1,2.11-1.176c1.961,0,2.469,1.246,2.469,2.841Z" fill="#fff"/>
      <path id="Path_45" data-name="Path 45" d="M1696.936,2823.871a3.031,3.031,0,0,1-1.919.588,3.352,3.352,0,0,1-2.689-1.19l.667-.783a2.88,2.88,0,0,0,2.036.95c.64,0,1.323-.223,1.323-.95s-1.09-.952-1.555-1.106a5.224,5.224,0,0,1-.945-.35,1.716,1.716,0,0,1-1.089-1.595c0-1.233,1.1-1.9,2.325-1.9a3.083,3.083,0,0,1,2.354.867l-.581.826a2.579,2.579,0,0,0-1.743-.713c-.671,0-1.1.279-1.1.826s.668.782,1.35.993c.378.126.639.209.929.321a2.624,2.624,0,0,1,.8.477,1.612,1.612,0,0,1,.553,1.232,1.861,1.861,0,0,1-.711,1.511" fill="#fff"/>
      <path id="Path_46" data-name="Path 46" d="M1705.276,2821.3h-5.318a2.092,2.092,0,0,0,2.223,2.114,3.894,3.894,0,0,0,2.281-.77l.582.77a4.128,4.128,0,0,1-3.038,1.049,3.282,3.282,0,0,1-3.459-3.485,3.362,3.362,0,0,1,3.5-3.443,3.1,3.1,0,0,1,3.271,3.177,5.436,5.436,0,0,1-.045.588m-1.278-.9a1.956,1.956,0,0,0-1.992-1.9,1.994,1.994,0,0,0-2.034,1.9Z" fill="#fff"/>
      <path id="Path_47" data-name="Path 47" d="M1707.457,2816.3a.829.829,0,1,1,.9-.825.842.842,0,0,1-.9.825m.7,8.007h-1.4v-6.649h1.4Z" fill="#fff"/>
      <rect id="Rectangle_24" data-name="Rectangle 24" width="1.38" height="9.659" transform="translate(1710.203 2814.646)" fill="#fff"/>
      <g id="Group_7" data-name="Group 7">
        <path id="Path_48" data-name="Path 48" d="M1723.152,2824.3h-1.338v-1.064h-.027a2.842,2.842,0,0,1-2.429,1.218,3.277,3.277,0,0,1-3.357-3.485,3.244,3.244,0,0,1,3.328-3.443,2.826,2.826,0,0,1,2.414,1.162h.027v-4.045h1.382Zm-3.531-5.683a2.351,2.351,0,1,0,2.192,2.338,2.148,2.148,0,0,0-2.192-2.338" fill="#fff"/>
        <path id="Path_49" data-name="Path 49" d="M1731.405,2821.3h-5.318a2.093,2.093,0,0,0,2.223,2.114,3.906,3.906,0,0,0,2.283-.77l.581.77a4.138,4.138,0,0,1-3.038,1.049,3.282,3.282,0,0,1-3.46-3.485,3.362,3.362,0,0,1,3.5-3.443,3.094,3.094,0,0,1,3.27,3.177,5.569,5.569,0,0,1-.044.588m-1.276-.9a1.958,1.958,0,0,0-1.993-1.9,2,2,0,0,0-2.035,1.9Z" fill="#fff"/>
        <path id="Path_50" data-name="Path 50" d="M1736.769,2823.871a3.031,3.031,0,0,1-1.919.588,3.353,3.353,0,0,1-2.689-1.19l.668-.783a2.876,2.876,0,0,0,2.036.95c.64,0,1.322-.223,1.322-.95s-1.091-.952-1.555-1.106a5.239,5.239,0,0,1-.944-.35,1.717,1.717,0,0,1-1.09-1.595c0-1.233,1.1-1.9,2.324-1.9a3.081,3.081,0,0,1,2.355.867l-.58.826a2.584,2.584,0,0,0-1.745-.713c-.668,0-1.1.279-1.1.826s.668.782,1.352.993c.377.126.641.209.929.321a2.653,2.653,0,0,1,.8.477,1.618,1.618,0,0,1,.551,1.232,1.858,1.858,0,0,1-.711,1.511" fill="#fff"/>
        <path id="Path_51" data-name="Path 51" d="M1747.1,2824.306h-1.351l-.015-.84a2.877,2.877,0,0,1-2.193.993,2.165,2.165,0,0,1-2.386-2.057c0-1.3,1.106-1.96,2.7-2.029l1.845-.072v-.264c0-1.009-.71-1.513-1.713-1.513a4.37,4.37,0,0,0-2.08.574l-.421-.9a5.48,5.48,0,0,1,2.588-.671,3.057,3.057,0,0,1,2.282.756,2.692,2.692,0,0,1,.74,2.155Zm-1.381-3.192-1.613.1c-1.118.056-1.57.518-1.57,1.148s.509,1.149,1.424,1.149a2.179,2.179,0,0,0,1.759-.967Z" fill="#fff"/>
        <path id="Path_52" data-name="Path 52" d="M1752.653,2818.889h-.058a1.9,1.9,0,0,0-.756-.14,1.464,1.464,0,0,0-1.135.56,2.872,2.872,0,0,0-.421,1.679v3.316h-1.4v-6.647h1.4l-.013,1.021h.044a1.8,1.8,0,0,1,1.7-1.148,2,2,0,0,1,.728.113Z" fill="#fff"/>
        <path id="Path_53" data-name="Path 53" d="M1757.114,2824.235a3.606,3.606,0,0,1-1.266.225,1.639,1.639,0,0,1-1.466-.685,3.36,3.36,0,0,1-.35-1.988v-3.039h-1.016v-1.077h1.016v-1.988h1.4v1.988h1.657v1.077h-1.657v3.01a2.5,2.5,0,0,0,.175,1.218.733.733,0,0,0,.713.337,1.716,1.716,0,0,0,.711-.155Z" fill="#fff"/>
        <path id="Path_54" data-name="Path 54" d="M1762.215,2823.871a3.03,3.03,0,0,1-1.918.588,3.355,3.355,0,0,1-2.69-1.19l.668-.783a2.88,2.88,0,0,0,2.036.95c.639,0,1.322-.223,1.322-.95s-1.091-.952-1.556-1.106a5.239,5.239,0,0,1-.944-.35,1.718,1.718,0,0,1-1.089-1.595c0-1.233,1.105-1.9,2.326-1.9a3.085,3.085,0,0,1,2.354.867l-.583.826a2.577,2.577,0,0,0-1.743-.713c-.669,0-1.1.279-1.1.826s.67.782,1.349.993c.38.126.643.209.932.321a2.661,2.661,0,0,1,.8.477,1.612,1.612,0,0,1,.552,1.232,1.861,1.861,0,0,1-.711,1.511" fill="#fff"/>
        <path id="Path_55" data-name="Path 55" d="M1674,2840.052h-1.336v-1.065h-.028a2.845,2.845,0,0,1-2.429,1.219,3.279,3.279,0,0,1-3.357-3.487,3.244,3.244,0,0,1,3.329-3.442,2.823,2.823,0,0,1,2.412,1.16h.03v-4.043H1674Zm-3.53-5.684a2.351,2.351,0,1,0,2.194,2.338,2.148,2.148,0,0,0-2.194-2.338" fill="#fff"/>
        <path id="Path_56" data-name="Path 56" d="M1681.865,2840.052h-1.353l-.015-.953a2.427,2.427,0,0,1-2.135,1.107,2.276,2.276,0,0,1-1.92-.771,3.281,3.281,0,0,1-.508-2.057v-3.989h1.38v3.933c0,.909.2,1.764,1.44,1.764,1.221,0,1.715-1.008,1.715-2.128v-3.568h1.4Z" fill="#fff"/>
        <path id="Path_57" data-name="Path 57" d="M1695.045,2838.791a4.784,4.784,0,0,1-3.661,1.428,4.985,4.985,0,1,1,0-9.966,5.075,5.075,0,0,1,3.56,1.273l-.6,1.092a4.039,4.039,0,0,0-2.905-1.175,3.766,3.766,0,0,0,0,7.532,4.049,4.049,0,0,0,2.993-1.177Z" fill="#fff"/>
        <path id="Path_58" data-name="Path 58" d="M1701.7,2840.052h-1.351l-.014-.84a2.888,2.888,0,0,1-2.2.994,2.165,2.165,0,0,1-2.384-2.058c0-1.3,1.107-1.959,2.7-2.029l1.846-.07v-.266c0-1.009-.712-1.513-1.716-1.513a4.369,4.369,0,0,0-2.078.575l-.42-.9a5.476,5.476,0,0,1,2.587-.671,3.058,3.058,0,0,1,2.282.757,2.69,2.69,0,0,1,.74,2.155Zm-1.381-3.192-1.614.1c-1.118.056-1.57.518-1.57,1.148s.51,1.149,1.425,1.149a2.185,2.185,0,0,0,1.759-.966Z" fill="#fff"/>
        <path id="Path_59" data-name="Path 59" d="M1709.491,2840.052h-1.4v-3.709c0-1.12-.2-1.961-1.438-1.961-1.293,0-1.774,1.051-1.774,2.325v3.345h-1.4v-6.65h1.4l-.014,1.05h.043a2.348,2.348,0,0,1,2.109-1.175c1.962,0,2.47,1.245,2.47,2.841Z" fill="#fff"/>
        <path id="Path_60" data-name="Path 60" d="M1716.714,2840.052h-1.352l-.014-.84a2.885,2.885,0,0,1-2.194.994,2.165,2.165,0,0,1-2.385-2.058c0-1.3,1.106-1.959,2.7-2.029l1.847-.07v-.266c0-1.009-.712-1.513-1.715-1.513a4.365,4.365,0,0,0-2.079.575l-.422-.9a5.486,5.486,0,0,1,2.589-.671,3.057,3.057,0,0,1,2.281.757,2.693,2.693,0,0,1,.741,2.155Zm-1.383-3.192-1.613.1c-1.117.056-1.569.518-1.569,1.148s.509,1.149,1.424,1.149a2.178,2.178,0,0,0,1.758-.966Z" fill="#fff"/>
        <path id="Path_61" data-name="Path 61" d="M1725.186,2840.052h-1.337v-1.065h-.028a2.847,2.847,0,0,1-2.43,1.219,3.278,3.278,0,0,1-3.357-3.487,3.243,3.243,0,0,1,3.329-3.442,2.825,2.825,0,0,1,2.413,1.16h.027v-4.043h1.383Zm-3.533-5.684a2.351,2.351,0,1,0,2.2,2.338,2.147,2.147,0,0,0-2.2-2.338" fill="#fff"/>
        <path id="Path_62" data-name="Path 62" d="M1732.539,2840.052h-1.352l-.014-.84a2.884,2.884,0,0,1-2.195.994,2.164,2.164,0,0,1-2.382-2.058c0-1.3,1.105-1.959,2.7-2.029l1.846-.07v-.266c0-1.009-.713-1.513-1.715-1.513a4.361,4.361,0,0,0-2.078.575l-.422-.9a5.489,5.489,0,0,1,2.588-.671,3.053,3.053,0,0,1,2.281.757,2.686,2.686,0,0,1,.741,2.155Zm-1.379-3.192-1.615.1c-1.12.056-1.571.518-1.571,1.148s.51,1.149,1.426,1.149a2.187,2.187,0,0,0,1.76-.966Z" fill="#fff"/>
        <path id="Path_63" data-name="Path 63" d="M1567.464,2823.045a4.783,4.783,0,0,1-3.662,1.428,4.985,4.985,0,1,1,0-9.966,5.058,5.058,0,0,1,3.559,1.274l-.594,1.091a4.045,4.045,0,0,0-2.907-1.175,3.765,3.765,0,0,0,0,7.53,4.048,4.048,0,0,0,2.995-1.175Z" fill="#fff"/>
        <path id="Path_64" data-name="Path 64" d="M1574.121,2824.306h-1.353l-.014-.84a2.88,2.88,0,0,1-2.194.993,2.164,2.164,0,0,1-2.384-2.057c0-1.3,1.1-1.96,2.7-2.029l1.846-.072v-.264c0-1.009-.711-1.513-1.714-1.513a4.366,4.366,0,0,0-2.08.574l-.42-.9a5.469,5.469,0,0,1,2.588-.671,3.057,3.057,0,0,1,2.281.756,2.692,2.692,0,0,1,.741,2.155Zm-1.382-3.192-1.613.1c-1.118.056-1.57.518-1.57,1.148s.51,1.149,1.425,1.149a2.181,2.181,0,0,0,1.758-.967Z" fill="#fff"/>
        <path id="Path_65" data-name="Path 65" d="M1581.91,2824.3h-1.4v-3.71c0-1.119-.2-1.959-1.44-1.959-1.292,0-1.772,1.051-1.772,2.323v3.346h-1.394v-6.649h1.394l-.014,1.05h.043a2.347,2.347,0,0,1,2.108-1.176c1.962,0,2.47,1.246,2.47,2.841Z" fill="#fff"/>
        <path id="Path_66" data-name="Path 66" d="M1589.133,2824.306h-1.351l-.016-.84a2.88,2.88,0,0,1-2.194.993,2.165,2.165,0,0,1-2.385-2.057c0-1.3,1.106-1.96,2.7-2.029l1.844-.072v-.264c0-1.009-.711-1.513-1.713-1.513a4.352,4.352,0,0,0-2.078.574l-.423-.9a5.48,5.48,0,0,1,2.588-.671,3.052,3.052,0,0,1,2.281.756,2.685,2.685,0,0,1,.742,2.155Zm-1.381-3.192-1.612.1c-1.12.056-1.57.518-1.57,1.148s.507,1.149,1.423,1.149a2.186,2.186,0,0,0,1.759-.967Z" fill="#fff"/>
        <path id="Path_67" data-name="Path 67" d="M1597.6,2824.3h-1.336v-1.064h-.028a2.843,2.843,0,0,1-2.429,1.218,3.278,3.278,0,0,1-3.357-3.485,3.245,3.245,0,0,1,3.33-3.443,2.815,2.815,0,0,1,2.411,1.162h.029v-4.045h1.38Zm-3.53-5.683a2.351,2.351,0,1,0,2.2,2.338,2.147,2.147,0,0,0-2.2-2.338" fill="#fff"/>
        <path id="Path_68" data-name="Path 68" d="M1604.958,2824.306h-1.352l-.014-.84a2.881,2.881,0,0,1-2.2.993,2.164,2.164,0,0,1-2.384-2.057c0-1.3,1.105-1.96,2.706-2.029l1.844-.072v-.264c0-1.009-.712-1.513-1.715-1.513a4.351,4.351,0,0,0-2.077.574l-.422-.9a5.475,5.475,0,0,1,2.587-.671,3.054,3.054,0,0,1,2.282.756,2.689,2.689,0,0,1,.74,2.155Zm-1.38-3.192-1.613.1c-1.119.056-1.569.518-1.569,1.148s.508,1.149,1.423,1.149a2.184,2.184,0,0,0,1.759-.967Z" fill="#fff"/>
        <path id="Path_69" data-name="Path 69" d="M1618.01,2823.045a4.787,4.787,0,0,1-3.663,1.428,4.985,4.985,0,1,1,0-9.966,5.07,5.07,0,0,1,3.561,1.274l-.595,1.091a4.048,4.048,0,0,0-2.906-1.175,3.765,3.765,0,0,0,0,7.53,4.044,4.044,0,0,0,2.992-1.175Z" fill="#fff"/>
        <path id="Path_70" data-name="Path 70" d="M1622.354,2824.459A3.469,3.469,0,1,1,1626,2821a3.44,3.44,0,0,1-3.649,3.457m0-5.837a2.348,2.348,0,1,0,2.239,2.338,2.2,2.2,0,0,0-2.239-2.338" fill="#fff"/>
        <path id="Path_71" data-name="Path 71" d="M1633.327,2824.3h-1.352l-.016-.951a2.426,2.426,0,0,1-2.135,1.106,2.275,2.275,0,0,1-1.919-.771,3.28,3.28,0,0,1-.507-2.057v-3.989h1.381v3.934c0,.909.2,1.763,1.437,1.763s1.716-1.008,1.716-2.128v-3.569h1.4Z" fill="#fff"/>
        <path id="Path_72" data-name="Path 72" d="M1641.247,2824.3h-1.395v-3.71c0-1.119-.2-1.959-1.44-1.959-1.292,0-1.772,1.051-1.772,2.323v3.346h-1.4v-6.649h1.4l-.014,1.05h.043a2.348,2.348,0,0,1,2.109-1.176c1.962,0,2.469,1.246,2.469,2.841Z" fill="#fff"/>
        <path id="Path_73" data-name="Path 73" d="M1648.891,2823.451a3.485,3.485,0,0,1-2.762,1.008,3.477,3.477,0,1,1,2.718-5.977l-.494.98a2.767,2.767,0,0,0-2.064-.811,2.332,2.332,0,0,0,.015,4.66,2.92,2.92,0,0,0,2.093-.839Z" fill="#fff"/>
        <path id="Path_74" data-name="Path 74" d="M1650.766,2816.3a.829.829,0,1,1,.9-.825.843.843,0,0,1-.9.825m.7,8.007h-1.4v-6.649h1.4Z" fill="#fff"/>
      </g>
      <rect id="Rectangle_25" data-name="Rectangle 25" width="1.381" height="9.659" transform="translate(1653.511 2814.646)" fill="#fff"/>
      <g id="Group_8" data-name="Group 8">
        <path id="Path_75" data-name="Path 75" d="M1562.581,2831.386a2.967,2.967,0,0,0-.785-.125c-.914,0-1.061.658-1.061,1.413v.742h1.643v1.078h-1.643v5.557h-1.38v-5.557h-.989v-1.078h.989v-.673a2.734,2.734,0,0,1,.464-1.776,2.123,2.123,0,0,1,1.657-.728,3.549,3.549,0,0,1,1.192.155Z" fill="#fff"/>
        <path id="Path_76" data-name="Path 76" d="M1566.244,2840.206a3.469,3.469,0,1,1,3.649-3.457,3.441,3.441,0,0,1-3.649,3.457m0-5.838a2.349,2.349,0,1,0,2.238,2.339,2.2,2.2,0,0,0-2.238-2.339" fill="#fff"/>
        <path id="Path_77" data-name="Path 77" d="M1575.109,2834.634h-.058a1.924,1.924,0,0,0-.757-.139,1.459,1.459,0,0,0-1.132.559,2.859,2.859,0,0,0-.423,1.681v3.316h-1.394V2833.4h1.394l-.015,1.021h.046a1.8,1.8,0,0,1,1.7-1.147,1.994,1.994,0,0,1,.726.113Z" fill="#fff"/>
        <path id="Path_78" data-name="Path 78" d="M1582.462,2839.981a3.6,3.6,0,0,1-1.265.225,1.641,1.641,0,0,1-1.468-.688,3.362,3.362,0,0,1-.349-1.987v-3.037h-1.016v-1.078h1.016v-1.987h1.4v1.987h1.657v1.078h-1.657v3.01a2.535,2.535,0,0,0,.174,1.217.733.733,0,0,0,.713.336,1.728,1.728,0,0,0,.711-.154Z" fill="#fff"/>
        <path id="Path_79" data-name="Path 79" d="M1589.7,2840.052h-1.395v-3.767c0-.949-.159-1.9-1.425-1.9s-1.8,1.051-1.8,2.38v3.29H1583.7v-9.659h1.381v4.06h.029a2.371,2.371,0,0,1,2.122-1.176c1.992,0,2.471,1.231,2.471,2.813Z" fill="#fff"/>
        <path id="Path_80" data-name="Path 80" d="M1597.853,2837.043h-5.32a2.093,2.093,0,0,0,2.224,2.113,3.893,3.893,0,0,0,2.282-.771l.582.771a4.139,4.139,0,0,1-3.04,1.05,3.283,3.283,0,0,1-3.458-3.487,3.362,3.362,0,0,1,3.5-3.443,3.1,3.1,0,0,1,3.27,3.178,5.6,5.6,0,0,1-.044.589m-1.28-.9a1.956,1.956,0,0,0-1.992-1.9,2,2,0,0,0-2.034,1.9Z" fill="#fff"/>
      </g>
      <path id="Path_81" data-name="Path 81" d="M1610.641,2840.052h-1.57l-1.03-2.521h-4.3l-1.032,2.521h-1.483l4.084-9.687h1.236Zm-2.993-3.653-1.759-4.341-1.758,4.341Z" fill="#fff"/>
      <path id="Path_82" data-name="Path 82" d="M1615.378,2834.634h-.056a1.924,1.924,0,0,0-.757-.139,1.464,1.464,0,0,0-1.134.559,2.871,2.871,0,0,0-.421,1.681v3.316h-1.4V2833.4h1.4l-.015,1.021h.045a1.8,1.8,0,0,1,1.7-1.147,1.987,1.987,0,0,1,.726.113Z" fill="#fff"/>
      <path id="Path_83" data-name="Path 83" d="M1619.841,2839.981a3.6,3.6,0,0,1-1.265.225,1.64,1.64,0,0,1-1.468-.688,3.36,3.36,0,0,1-.35-1.987v-3.037h-1.016v-1.078h1.016v-1.987h1.4v1.987h1.657v1.078h-1.657v3.01a2.522,2.522,0,0,0,.174,1.217.734.734,0,0,0,.713.336,1.741,1.741,0,0,0,.712-.154Z" fill="#fff"/>
      <path id="Path_84" data-name="Path 84" d="M1624.941,2839.617a3.017,3.017,0,0,1-1.918.589,3.359,3.359,0,0,1-2.689-1.19l.669-.784a2.882,2.882,0,0,0,2.035.952c.64,0,1.322-.224,1.322-.952s-1.089-.952-1.554-1.106a5.418,5.418,0,0,1-.945-.349,1.721,1.721,0,0,1-1.088-1.6c0-1.233,1.1-1.9,2.324-1.9a3.086,3.086,0,0,1,2.355.867l-.581.826a2.591,2.591,0,0,0-1.744-.713c-.67,0-1.1.278-1.1.827s.668.784,1.352.993c.377.127.639.21.929.323a2.616,2.616,0,0,1,.8.475,1.611,1.611,0,0,1,.553,1.231,1.868,1.868,0,0,1-.715,1.511" fill="#fff"/>
      <path id="Path_85" data-name="Path 85" d="M1547.214,2840.423c-2.253-2.1-8.72-3.921-15.368-4.305a3.127,3.127,0,0,0-.995,1.1c5.6.247,10.982,1.784,12.971,3.5,1.8,1.373,1.53,3.26-.56,4.56-3.048,2.052-9.347,3-16.182,2.975-6.838.023-13.137-.923-16.188-2.975-2.087-1.3-2.36-3.187-.558-4.56,1.99-1.716,7.37-3.254,12.972-3.5a3.154,3.154,0,0,0-1-1.1c-6.639.384-13.11,2.205-15.364,4.305-3.051,2.646-.621,5.686,6.046,7.561a59.734,59.734,0,0,0,28.176,0c6.666-1.875,9.1-4.915,6.05-7.561" fill="#fff"/>
      <path id="Path_86" data-name="Path 86" d="M1543.657,2818.659a4.656,4.656,0,0,0-3.38-3.767,3.091,3.091,0,0,0,.313-3.274c-.829-1.906-3.134-2.515-4.5-2.423-1.943.132-3.095.908-5.14,2.42-.473-.354-1.435-1.043-1.859-1.357h0a20.152,20.152,0,0,1,2.862-1.852,7.22,7.22,0,0,1,2.334-.8,9.455,9.455,0,0,0-7.2-3.257h-.018a9.454,9.454,0,0,0-7.2,3.257,7.2,7.2,0,0,1,2.334.8,19.971,19.971,0,0,1,2.861,1.852c-.423.314-1.386,1-1.86,1.357-2.046-1.512-3.2-2.287-5.138-2.42-1.364-.091-3.669.517-4.5,2.423a3.1,3.1,0,0,0,.313,3.274,4.657,4.657,0,0,0-3.377,3.767,4.267,4.267,0,0,0,2.857,4.194,3.378,3.378,0,0,0-.79,2.054c0,1.709,1.589,4.052,4.993,3.958,2.534-.065,3.548-.823,5.536-2.307a12.287,12.287,0,0,1,1.672,6.636s.214,3.128-1.4,10.789h.005c0,.409,1.661.739,3.71.739s3.7-.33,3.7-.739h.008c-1.62-7.662-1.405-10.789-1.405-10.789a12.308,12.308,0,0,1,1.672-6.636c1.989,1.484,3,2.242,5.534,2.307,3.408.094,5-2.249,5-3.958a3.38,3.38,0,0,0-.791-2.054,4.265,4.265,0,0,0,2.859-4.194m-7.636-7c1.767-.094,2.469.942,2.32,1.634a2.148,2.148,0,0,1-2.314,1.381,5.854,5.854,0,0,1-3.011-1.548,5.781,5.781,0,0,1,3.005-1.467M1531,2814.6c.582.411,1.126.818,1.558,1.125.232.169.428.331.668.48-.3.212-.528.393-.873.648-.247.185-.643.464-1.016.729-.611-.444-1.348-.969-2.211-1.61.582-.417,1.195-.886,1.874-1.372m-2.055-1.507c-.583.417-1.1.829-1.838,1.357l-.021.011-.017-.011c-.737-.528-1.258-.94-1.842-1.357.468-.349,1.027-.758,1.8-1.32l.061-.047.062.047c.775.562,1.33.971,1.8,1.32m-4.387-5.957a5,5,0,0,1,5.042,0s-.485.255-1.181.722c-.873.582-1.316.926-1.339.949-.023-.023-.466-.367-1.341-.949-.7-.467-1.181-.722-1.181-.722m2.437,10.381.092-.067.093.067c.676.508,1.375.986,2.13,1.553-.45.314-.81.579-1.126.814s-.673.485-1.041.749l-.057.042-.054-.042c-.365-.264-.722-.527-1.037-.749s-.684-.5-1.129-.814c.751-.567,1.455-1.045,2.129-1.553m-3.825-2.917c.677.486,1.3.955,1.881,1.371-.866.641-1.6,1.167-2.212,1.61-.372-.264-.769-.544-1.018-.728-.343-.256-.576-.438-.871-.648.242-.149.432-.311.663-.48.436-.307.984-.714,1.557-1.125m-5.015-2.945a5.745,5.745,0,0,1,3,1.467,5.812,5.812,0,0,1-3.01,1.548,2.148,2.148,0,0,1-2.312-1.381c-.147-.692.553-1.728,2.325-1.634m-5.169,7.484c-.039-.918.643-2.182,3.137-2.322,1.682-.093,2.876.881,4.722,2.207-1.492,1.083-2.65,2.006-4.772,2.152-1.719.115-3.04-1.11-3.087-2.037m4.779,7.438c-1.793.083-2.85-.77-2.789-1.713.051-.743,1.747-2.467,5.274-.937a5.427,5.427,0,0,1,1.294.792c-1.749,1.262-2.417,1.795-3.779,1.858m5.694-3.273a8.323,8.323,0,0,0-2.315-1.541c.559-.36,1.107-.762,1.684-1.219a.164.164,0,0,1,.056-.04c.787.573,1.55,1.121,2.212,1.613-.57.424-1.1.805-1.637,1.187m3.677,6.464-.049.21-.051-.21a14.078,14.078,0,0,0-1.767-4.463c.641-.464,1.22-.894,1.818-1.323.6.429,1.178.859,1.821,1.323a14.032,14.032,0,0,0-1.772,4.463m3.579-6.464c-.537-.382-1.063-.763-1.636-1.187.661-.492,1.422-1.04,2.209-1.613a.159.159,0,0,1,.057.04c.58.457,1.128.857,1.682,1.219a8.351,8.351,0,0,0-2.312,1.541m5.7,3.273c-1.368-.064-2.028-.6-3.783-1.858a5.4,5.4,0,0,1,1.3-.792c3.531-1.53,5.222.194,5.268.937.068.943-.991,1.8-2.781,1.713m1.69-5.4c-2.122-.146-3.281-1.07-4.773-2.152,1.847-1.326,3.042-2.3,4.725-2.207,2.491.14,3.177,1.4,3.136,2.322s-1.37,2.152-3.088,2.037" fill="#fff"/>
    </g>
  </g>
</svg>
